# xmcd CD database file
#
# Track frame offsets:
#	150
#	7234
#	71111
#	99147
#	140925
#	160239
#	199684
#	213914
#	234415
#
# Disc length: 3738 seconds
#
# Revision: 0
# Processed by: cddbd v1.4PL0 Copyright (c) Steve Scherf et al.
# Submitted via: CDex 1.51
#
DISCID=7e0e9809
DTITLE=Art Blakey and The Jazz Messengers - At the Cafe Bohemia, Vol. 1
DYEAR=1955
DGENRE=Jazz
TTITLE0=Announcement by Art Blakey
TTITLE1=Soft Winds
TTITLE2=The Theme
TTITLE3=Minor's Holiday
TTITLE4=Alone Together
TTITLE5=Prince Albert
TTITLE6=Lady Bird
TTITLE7=What's New?
TTITLE8=Deciphering the Message
EXTD=YEAR: 1955
EXTT0=
EXTT1=
EXTT2=
EXTT3=
EXTT4=
EXTT5=
EXTT6=
EXTT7=
EXTT8=
PLAYORDER=
